<svg width="21" height="21" viewBox="0 0 21 21" fill="none" xmlns="http://www.w3.org/2000/svg">
<path fill-rule="evenodd" clip-rule="evenodd" d="M10.5001 19.6875C10.3261 19.6875 10.1592 19.6184 10.0361 19.4953C9.91304 19.3722 9.8439 19.2053 9.8439 19.0313L9.8439 3.55294L5.71477 7.68338C5.59155 7.8066 5.42441 7.87583 5.25015 7.87583C5.07588 7.87583 4.90875 7.8066 4.78552 7.68338C4.66229 7.56015 4.59307 7.39302 4.59307 7.21875C4.59307 7.04448 4.66229 6.87735 4.78552 6.75413L10.0355 1.50413C10.0965 1.44301 10.1689 1.39453 10.2486 1.36144C10.3284 1.32836 10.4138 1.31133 10.5001 1.31133C10.5865 1.31133 10.6719 1.32836 10.7517 1.36144C10.8314 1.39453 10.9038 1.44301 10.9648 1.50413L16.2148 6.75413C16.338 6.87735 16.4072 7.04448 16.4072 7.21875C16.4072 7.39302 16.338 7.56015 16.2148 7.68338C16.0915 7.8066 15.9244 7.87583 15.7501 7.87583C15.5759 7.87583 15.4087 7.8066 15.2855 7.68338L11.1564 3.55294L11.1564 19.0313C11.1564 19.2053 11.0873 19.3722 10.9642 19.4953C10.8411 19.6184 10.6742 19.6875 10.5001 19.6875Z" fill="#A65358"/>
</svg>
