<svg width="21" height="26" viewBox="0 0 21 26" fill="none" xmlns="http://www.w3.org/2000/svg">
<path d="M2 8V24.3636C2 25.2636 2.69545 26 3.54545 26H17.4545C18.3045 26 19 25.2636 19 24.3636V8H2ZM6.63636 22.7273H5.09091V11.2727H6.63636V22.7273ZM9.72727 22.7273H8.18182V11.2727H9.72727V22.7273ZM12.8182 22.7273H11.2727V11.2727H12.8182V22.7273ZM15.9091 22.7273H14.3636V11.2727H15.9091V22.7273Z" fill="#3E3C3D"/>
<path d="M19.7885 3.5H14.5385V1.3125C14.5372 0.964829 14.4091 0.631792 14.1822 0.38595C13.9553 0.140107 13.6479 0.00138241 13.3269 0L7.67308 0C7.35215 0.00138241 7.04473 0.140107 6.8178 0.38595C6.59087 0.631792 6.46281 0.964829 6.46154 1.3125V3.5H1.21154C0.890481 3.50092 0.582816 3.6395 0.355793 3.88544C0.12877 4.13138 0.000852748 4.46469 0 4.8125V7H21V4.8125C20.9991 4.46469 20.8712 4.13138 20.6442 3.88544C20.4172 3.6395 20.1095 3.50092 19.7885 3.5ZM12.9231 3.5H8.07692V1.77275H12.9231V3.5Z" fill="#3E3C3D"/>
</svg>
