<svg width="64" height="69" viewBox="0 0 64 69" fill="none" xmlns="http://www.w3.org/2000/svg">
<path d="M17.9878 10.7812C16.7886 10.7812 15.9892 12.075 15.9892 12.9375V23.7188H11.9919V12.9375C11.9919 11.6438 11.1924 10.7812 9.99324 10.7812C8.79405 10.7812 7.99459 12.075 7.99459 12.9375V23.7188H3.9973V12.9375C3.9973 11.6438 3.19784 10.7812 1.99865 10.7812C0.799459 10.7812 0 12.075 0 12.9375V27.1688C0 31.05 2.79811 34.0687 5.99594 34.5V64.6875C5.99594 67.275 7.59486 69 9.99324 69C12.3916 69 13.9905 67.275 13.9905 64.6875V34.5C17.1884 34.0687 19.9865 31.05 19.9865 27.1688V12.9375C19.9865 12.075 19.187 10.7812 17.9878 10.7812ZM25.9824 12.9375V38.8125H29.9797V64.6875C29.9797 67.275 31.5786 69 33.977 69C36.3754 69 37.9743 67.275 37.9743 64.6875V0C31.1789 0 25.9824 5.60625 25.9824 12.9375ZM53.9635 8.625C48.3673 8.625 43.9702 15.0938 43.9702 22.8563C43.5705 28.0313 45.9689 32.775 49.9662 35.7938V64.6875C49.9662 67.275 51.5651 69 53.9635 69C56.3619 69 57.9608 67.275 57.9608 64.6875V35.7938C61.9581 32.775 64.3565 28.0313 63.9567 22.8563C63.9567 15.0938 59.5597 8.625 53.9635 8.625Z" fill="#A65358"/>
</svg>
