<svg width="54" height="66" viewBox="0 0 54 66" fill="none" xmlns="http://www.w3.org/2000/svg">
<path d="M50.15 16.6667C51.41 15.4067 52.1033 13.7333 52.1033 11.9533C52.1033 10.1733 51.41 8.5 50.15 7.24L44.8633 1.95333C43.6033 0.693333 41.93 0 40.15 0C38.37 0 36.6967 0.693333 35.44 1.95L0 37.28V51.9967H14.71L50.15 16.6667ZM40.15 6.66667L45.44 11.95L40.14 17.23L34.8533 11.9467L40.15 6.66667ZM6.66667 45.33V40.0467L30.1333 16.6533L35.42 21.94L11.9567 45.33H6.66667ZM0 58.6633H53.3333V65.33H0V58.6633Z" fill="#3E3C3D"/>
</svg>
