<svg width="44" height="64" viewBox="0 0 44 64" fill="none" xmlns="http://www.w3.org/2000/svg">
<path d="M44 22.0688C43.9999 17.798 42.7646 13.6191 40.4438 10.0387C38.123 6.45827 34.8164 3.63029 30.9251 1.8977C27.0338 0.165106 22.725 -0.397652 18.5212 0.277672C14.3174 0.952997 10.3992 2.83739 7.24185 5.70231C4.08451 8.56723 1.82366 12.2896 0.733492 16.418C-0.356675 20.5463 -0.22932 24.9033 1.10011 28.9605C2.42954 33.0177 4.90394 36.6007 8.22319 39.2752C11.5424 41.9496 15.564 43.6004 19.8 44.0275V50.7586H11C10.4165 50.7586 9.85695 50.9911 9.44437 51.4049C9.03179 51.8188 8.8 52.3802 8.8 52.9655C8.8 53.5508 9.03179 54.1121 9.44437 54.526C9.85695 54.9399 10.4165 55.1724 11 55.1724H19.8V61.7931C19.8 62.3784 20.0318 62.9397 20.4444 63.3536C20.8569 63.7675 21.4165 64 22 64C22.5835 64 23.1431 63.7675 23.5556 63.3536C23.9682 62.9397 24.2 62.3784 24.2 61.7931V55.1724H33C33.5835 55.1724 34.1431 54.9399 34.5556 54.526C34.9682 54.1121 35.2 53.5508 35.2 52.9655C35.2 52.3802 34.9682 51.8188 34.5556 51.4049C34.1431 50.9911 33.5835 50.7586 33 50.7586H24.2V44.0275C29.624 43.4738 34.6506 40.9223 38.3079 36.8663C41.9652 32.8102 43.9933 27.5379 44 22.0688V22.0688ZM22 39.724C18.519 39.724 15.1163 38.6886 12.222 36.7486C9.32766 34.8086 7.07182 32.0512 5.73972 28.8252C4.40762 25.5991 4.05908 22.0492 4.73818 18.6244C5.41728 15.1996 7.09352 12.0538 9.55492 9.58465C12.0163 7.11552 15.1523 5.43402 18.5664 4.75279C21.9805 4.07156 25.5193 4.42119 28.7352 5.75747C31.9512 7.09376 34.7 9.35667 36.6339 12.2601C38.5678 15.1635 39.6 18.5769 39.6 22.0688C39.5948 26.7496 37.7388 31.2373 34.4393 34.5471C31.1398 37.857 26.6662 39.7188 22 39.724V39.724Z" fill="#3E3C3D"/>
</svg>
