<svg width="25" height="25" viewBox="0 0 25 25" fill="none" xmlns="http://www.w3.org/2000/svg">
<path d="M18.3473 16.1635C19.8603 14.099 20.5379 11.5393 20.2446 8.99656C19.9514 6.45384 18.7089 4.1156 16.7657 2.44965C14.8225 0.783701 12.3219 -0.0871079 9.76423 0.0114439C7.20656 0.109996 4.7804 1.17064 2.97116 2.98118C1.16191 4.79172 0.103005 7.21863 0.00628365 9.77638C-0.0904379 12.3341 0.78216 14.8341 2.4495 16.7761C4.11684 18.7181 6.45596 19.9589 8.99889 20.2504C11.5418 20.5418 14.101 19.8623 16.1645 18.3479H16.1629C16.2098 18.4104 16.2598 18.4698 16.316 18.5276L22.3317 24.5432C22.6247 24.8364 23.0221 25.0012 23.4366 25.0013C23.8511 25.0015 24.2486 24.837 24.5418 24.544C24.835 24.251 24.9998 23.8535 25 23.4391C25.0001 23.0246 24.8356 22.627 24.5426 22.3338L18.527 16.3182C18.4711 16.2617 18.4111 16.2094 18.3473 16.1619V16.1635ZM18.7504 10.1573C18.7504 11.2858 18.5281 12.4033 18.0963 13.4459C17.6644 14.4886 17.0314 15.436 16.2334 16.234C15.4354 17.032 14.488 17.665 13.4454 18.0968C12.4027 18.5287 11.2852 18.751 10.1567 18.751C9.02813 18.751 7.91063 18.5287 6.86799 18.0968C5.82535 17.665 4.87798 17.032 4.07998 16.234C3.28197 15.436 2.64896 14.4886 2.21709 13.4459C1.78521 12.4033 1.56293 11.2858 1.56293 10.1573C1.56293 7.87806 2.46834 5.6922 4.07998 4.08056C5.69162 2.46892 7.87747 1.56351 10.1567 1.56351C12.4359 1.56351 14.6217 2.46892 16.2334 4.08056C17.845 5.6922 18.7504 7.87806 18.7504 10.1573Z" fill="#3E3C3D" fill-opacity="0.65"/>
</svg>
