<svg width="32" height="32" viewBox="0 0 32 32" fill="none" xmlns="http://www.w3.org/2000/svg">
<path d="M28.648 24.1861H26.0858C25.9108 24.1861 25.7468 24.2642 25.6375 24.4019C25.3824 24.7182 25.109 25.0233 24.8211 25.3135C23.6435 26.517 22.2486 27.476 20.7135 28.1377C19.1232 28.8234 17.4139 29.1752 15.6875 29.1721C13.9417 29.1721 12.2506 28.8223 10.6615 28.1377C9.12647 27.476 7.73157 26.517 6.55395 25.3135C5.37422 24.1141 4.43353 22.6925 3.78399 21.1275C3.10972 19.5051 2.77077 17.7824 2.77077 16C2.77077 14.2177 3.11337 12.4949 3.78399 10.8726C4.43274 9.30609 5.36578 7.89586 6.55395 6.68656C7.74211 5.47726 9.12345 4.5247 10.6615 3.86238C12.2506 3.17773 13.9417 2.82796 15.6875 2.82796C17.4333 2.82796 19.1245 3.174 20.7135 3.86238C22.2516 4.5247 23.6329 5.47726 24.8211 6.68656C25.109 6.98051 25.3787 7.28563 25.6375 7.59818C25.7468 7.73586 25.9145 7.814 26.0858 7.814H28.648C28.8776 7.814 29.0198 7.55353 28.8922 7.35632C26.0967 2.92098 21.2056 -0.0148274 15.6474 5.63298e-05C6.91477 0.0223819 -0.0866616 7.25958 0.000810776 16.1637C0.0882831 24.9265 7.07878 32 15.6875 32C21.2311 32 26.1004 29.0679 28.8922 24.6437C29.0161 24.4465 28.8776 24.1861 28.648 24.1861ZM31.8881 15.7656L26.7163 11.5982C26.5232 11.4419 26.2425 11.5833 26.2425 11.8326V14.6605H14.7982C14.6379 14.6605 14.5066 14.7944 14.5066 14.9582V17.0419C14.5066 17.2056 14.6379 17.3396 14.7982 17.3396H26.2425V20.1675C26.2425 20.4168 26.5268 20.5582 26.7163 20.4019L31.8881 16.2344C31.923 16.2066 31.9512 16.171 31.9705 16.1304C31.9899 16.0898 32 16.0452 32 16C32 15.9548 31.9899 15.9103 31.9705 15.8696C31.9512 15.829 31.923 15.7935 31.8881 15.7656Z" fill="#3E3C3D"/>
</svg>
