<svg width="50" height="50" viewBox="0 0 50 50" fill="none" xmlns="http://www.w3.org/2000/svg">
<path d="M49.99 1.8025C49.9873 1.774 49.9818 1.74625 49.9777 1.71825C49.9727 1.68175 49.9685 1.64525 49.9613 1.609C49.9548 1.57625 49.9458 1.54425 49.9375 1.512C49.93 1.481 49.923 1.45 49.9137 1.41925C49.904 1.3875 49.8923 1.357 49.8812 1.326C49.8702 1.2955 49.86 1.2645 49.8475 1.23425C49.8355 1.2055 49.8215 1.178 49.8083 1.14975C49.7938 1.11875 49.78 1.0875 49.7635 1.05725C49.7492 1.03025 49.7327 1.00475 49.717 0.9785C49.6995 0.9485 49.6825 0.9185 49.663 0.88925C49.644 0.861 49.623 0.83425 49.6025 0.807C49.5838 0.782 49.5665 0.75625 49.5465 0.732C49.5083 0.685827 49.4681 0.641367 49.426 0.59875C49.4217 0.5945 49.4185 0.58975 49.4142 0.58575C49.4092 0.58075 49.4043 0.577 49.3993 0.57225C49.3572 0.530688 49.3133 0.490983 49.2677 0.45325C49.245 0.43475 49.221 0.41825 49.1975 0.40075C49.1685 0.37925 49.14 0.35675 49.11 0.33675C49.0833 0.3185 49.0552 0.303 49.0275 0.28675C48.9992 0.26925 48.9712 0.25175 48.9417 0.23575C48.9145 0.22125 48.8865 0.209 48.8587 0.19575C48.8272 0.18075 48.7962 0.16525 48.7637 0.15175C48.738 0.14125 48.7118 0.13275 48.6855 0.12325C48.65 0.11025 48.615 0.0967496 48.5788 0.0857496C48.5542 0.0782496 48.5295 0.0732496 48.5047 0.0667496C48.4662 0.0567496 48.428 0.0459998 48.3885 0.0384998C48.3625 0.0334998 48.3363 0.0304997 48.3102 0.0264997C48.272 0.0204997 48.234 0.0137504 48.1953 0.00975037C48.1555 0.00600037 48.1157 0.00524985 48.076 0.00374985C48.0505 0.00299985 48.0257 0 48 0H36C35.4696 0 34.9609 0.210714 34.5858 0.585787C34.2107 0.96086 34 1.46957 34 2C34 2.53043 34.2107 3.03914 34.5858 3.41421C34.9609 3.78929 35.4696 4 36 4H43.1715L32.657 14.5145C28.6842 11.2674 23.6154 9.67129 18.4989 10.0564C13.3824 10.4415 8.60956 12.7784 5.16759 16.5836C1.72563 20.3889 -0.122202 25.3714 0.0062775 30.5008C0.134757 35.6302 2.22971 40.514 5.85787 44.1421C9.48603 47.7703 14.3698 49.8652 19.4992 49.9937C24.6286 50.1222 29.6111 48.2744 33.4164 44.8324C37.2216 41.3904 39.5585 36.6176 39.9436 31.5011C40.3287 26.3846 38.7326 21.3158 35.4855 17.343L46 6.8285V14C46 14.5304 46.2107 15.0391 46.5858 15.4142C46.9609 15.7893 47.4696 16 48 16C48.5304 16 49.0391 15.7893 49.4142 15.4142C49.7893 15.0391 50 14.5304 50 14V2.0005C50 1.9345 49.9965 1.8685 49.99 1.8025ZM31.3138 41.3138C29.0766 43.5488 26.2269 45.0705 23.1251 45.6863C20.0233 46.3022 16.8085 45.9846 13.8871 44.7737C10.9658 43.5628 8.46897 41.513 6.71236 38.8834C4.95575 36.2538 4.01819 33.1624 4.01819 30C4.01819 26.8376 4.95575 23.7462 6.71236 21.1166C8.46897 18.487 10.9658 16.4372 13.8871 15.2263C16.8085 14.0154 20.0233 13.6978 23.1251 14.3137C26.2269 14.9295 29.0766 16.4512 31.3138 18.6863C34.31 21.6892 35.9926 25.758 35.9926 30C35.9926 34.242 34.31 38.3108 31.3138 41.3138Z" fill="#3E3C3D"/>
</svg>
