<svg width="80" height="50" viewBox="0 0 80 50" fill="none" xmlns="http://www.w3.org/2000/svg">
<path d="M40 10.4167C33.3725 10.4167 28 16.9453 28 25C28 33.0534 33.3725 39.5833 40 39.5833C46.625 39.5833 52 33.056 52 25C52 16.9453 46.6275 10.4167 40 10.4167ZM45 32.2917C45 32.8672 44.5525 33.3333 44 33.3333H36C35.4475 33.3333 35 32.8672 35 32.2917V30.2083C35 29.6328 35.4475 29.1667 36 29.1667H38V21.9479L37.9412 21.9883C37.832 22.0642 37.7095 22.117 37.5807 22.1435C37.4519 22.1701 37.3193 22.1699 37.1906 22.1431C37.0618 22.1163 36.9394 22.0632 36.8304 21.9871C36.7213 21.9109 36.6277 21.8131 36.555 21.6992L35.445 19.9661C35.3721 19.8524 35.3215 19.7248 35.296 19.5906C35.2705 19.4564 35.2706 19.3183 35.2964 19.1842C35.3221 19.0501 35.373 18.9226 35.4462 18.809C35.5193 18.6954 35.6132 18.5979 35.7225 18.5221L37.6387 17.1914C38.1314 16.8492 38.7103 16.6666 39.3025 16.6667H41C41.5525 16.6667 42 17.1328 42 17.7083V29.1667H44C44.5525 29.1667 45 29.6328 45 30.2083V32.2917ZM76 0H4C1.79125 0 0 1.86589 0 4.16667V45.8333C0 48.1341 1.79125 50 4 50H76C78.2087 50 80 48.1341 80 45.8333V4.16667C80 1.86589 78.2087 0 76 0ZM74 35.4167C69.5813 35.4167 66 39.1471 66 43.75H14C14 39.1471 10.4187 35.4167 6 35.4167V14.5833C10.4187 14.5833 14 10.8529 14 6.25H66C66 10.8529 69.5813 14.5833 74 14.5833V35.4167Z" fill="#93B15C"/>
</svg>
