<svg width="100" height="100" viewBox="0 0 100 100" fill="none" xmlns="http://www.w3.org/2000/svg">
<path fill-rule="evenodd" clip-rule="evenodd" d="M50 0C22.3864 0 0 22.3864 0 50C0 77.6136 22.3864 100 50 100C77.6136 100 100 77.6136 100 50C100 22.3864 77.6136 0 50 0ZM54.5455 68.1818C54.5455 69.3873 54.0666 70.5435 53.2141 71.3959C52.3617 72.2484 51.2055 72.7273 50 72.7273C48.7945 72.7273 47.6383 72.2484 46.7859 71.3959C45.9334 70.5435 45.4545 69.3873 45.4545 68.1818V54.5455H31.8182C30.6127 54.5455 29.4565 54.0666 28.6041 53.2141C27.7516 52.3617 27.2727 51.2055 27.2727 50C27.2727 48.7945 27.7516 47.6383 28.6041 46.7859C29.4565 45.9334 30.6127 45.4545 31.8182 45.4545H45.4545V31.8182C45.4545 30.6127 45.9334 29.4565 46.7859 28.6041C47.6383 27.7516 48.7945 27.2727 50 27.2727C51.2055 27.2727 52.3617 27.7516 53.2141 28.6041C54.0666 29.4565 54.5455 30.6127 54.5455 31.8182V45.4545H68.1818C69.3873 45.4545 70.5435 45.9334 71.3959 46.7859C72.2484 47.6383 72.7273 48.7945 72.7273 50C72.7273 51.2055 72.2484 52.3617 71.3959 53.2141C70.5435 54.0666 69.3873 54.5455 68.1818 54.5455H54.5455V68.1818Z" fill="#3E3C3D"/>
</svg>
