<svg width="25" height="25" viewBox="0 0 25 25" fill="none" xmlns="http://www.w3.org/2000/svg">
<path d="M1.90917 0.776623C1.76792 0.70598 1.60969 0.676395 1.45246 0.691233C1.29524 0.706071 1.14533 0.764738 1.0198 0.860558C0.894262 0.956379 0.79814 1.08551 0.742364 1.23325C0.686588 1.381 0.673397 1.54144 0.704291 1.69631L3.07185 9.88068C3.116 10.0332 3.20229 10.1702 3.3208 10.2758C3.43931 10.3815 3.58523 10.4516 3.74179 10.4781L13.3437 12.0862C13.7959 12.1757 13.7959 12.8237 13.3437 12.9131L3.74179 14.5213C3.58523 14.5478 3.43931 14.6178 3.3208 14.7235C3.20229 14.8292 3.116 14.9662 3.07185 15.1187L0.704291 23.3031C0.673397 23.4579 0.686588 23.6184 0.742364 23.7661C0.79814 23.9139 0.894262 24.043 1.0198 24.1388C1.14533 24.2346 1.29524 24.2933 1.45246 24.3081C1.60969 24.323 1.76792 24.2934 1.90917 24.2227L23.8467 13.254C23.9866 13.1838 24.1043 13.0761 24.1866 12.9429C24.2688 12.8097 24.3124 12.6562 24.3124 12.4997C24.3124 12.3431 24.2688 12.1897 24.1866 12.0564C24.1043 11.9232 23.9866 11.8155 23.8467 11.7454L1.90917 0.776623Z" fill="#3E3C3D"/>
</svg>
