<svg width="20" height="18" viewBox="0 0 20 18" fill="none" xmlns="http://www.w3.org/2000/svg">
<path d="M17.4862 6.11433V5.92478C17.4446 4.32004 16.752 2.79645 15.5596 1.68662C14.3671 0.576783 12.7717 -0.0291556 11.1215 0.0010795C9.89249 -0.00867382 8.6868 0.327191 7.64948 0.968258C6.61215 1.60932 5.78741 2.52828 5.27447 3.61453C3.83027 3.77122 2.49543 4.43803 1.52319 5.48844C0.55095 6.53886 0.00894555 7.89982 0 9.31313C0.00159699 10.062 0.154933 10.8032 0.451242 11.4944C0.747552 12.1855 1.18102 12.8131 1.72687 13.3413C2.27273 13.8694 2.92025 14.2877 3.63244 14.5723C4.34462 14.8569 5.1075 15.0022 5.87745 14.9999H8.16143V13.8151H5.87745C4.70021 13.7532 3.5909 13.2595 2.77311 12.4335C1.95532 11.6076 1.48986 10.5109 1.47055 9.36436C1.45124 8.21787 1.87951 7.10689 2.66904 6.25534C3.45858 5.4038 4.55067 4.87502 5.72518 4.77558H6.13325L6.27334 4.40239C6.65108 3.44816 7.32091 2.62971 8.1923 2.05764C9.06369 1.48558 10.0946 1.18746 11.1458 1.20359C12.473 1.17326 13.7587 1.65436 14.7227 2.54204C15.6868 3.42972 16.251 4.65202 16.2924 5.94255C16.3008 6.10041 16.3008 6.25858 16.2924 6.41644L16.2437 6.84295L16.6396 7.02066C17.4053 7.35616 18.0288 7.93793 18.4052 8.66807C18.7816 9.39822 18.888 10.2322 18.7065 11.0297C18.5249 11.8271 18.0664 12.5394 17.4082 13.0468C16.7501 13.5541 15.9323 13.8254 15.0926 13.8151H11.8158V14.9999H15.0926C16.1757 15.0074 17.2307 14.6637 18.0906 14.023C18.9505 13.3824 19.5664 12.4813 19.8409 11.4621C20.1154 10.443 20.033 9.36391 19.6065 8.39544C19.1801 7.42697 18.434 6.62433 17.4862 6.11433V6.11433Z" fill="#3E3C3D"/>
<path d="M12.4215 11.9217C12.5351 11.9235 12.6466 11.8905 12.7417 11.8268C12.8369 11.763 12.9113 11.6716 12.9554 11.5641C12.9995 11.4566 13.0112 11.3381 12.9891 11.2237C12.9671 11.1093 12.9122 11.0044 12.8315 10.9223L9.98421 8L7.13693 10.9223C7.04364 11.0341 6.99489 11.1779 7.00042 11.325C7.00596 11.4721 7.06537 11.6116 7.16679 11.7157C7.26821 11.8198 7.40416 11.8808 7.54748 11.8864C7.69079 11.8921 7.83092 11.8421 7.93986 11.7463L9.41475 10.256V17.4155C9.41475 17.5706 9.47475 17.7192 9.58154 17.8288C9.68833 17.9384 9.83318 18 9.98421 18C10.1352 18 10.2801 17.9384 10.3869 17.8288C10.4937 17.7192 10.5537 17.5706 10.5537 17.4155V10.256L12.0172 11.758C12.1256 11.8653 12.2709 11.9241 12.4215 11.9217Z" fill="#3E3C3D"/>
</svg>
